# xmcd
#
# Track frame offsets:
#	150
#	16242
#	34373
#	51102
#	68889
#	89050
#	105569
#	128448
#	149210
#	162621
#
# Disc length: 2369 seconds
#
# Revision: 2
# Processed by: cddbd v1.5.2PL0 Copyright (c) Steve Scherf et al.
# Submitted via: EZCDAudioConverter 7.1.5.1
#
DISCID=91093f0a
DTITLE=吉馬大對唱 - 吉馬大對唱 10 CD 典藏版
DYEAR=1900
DGENRE=
TTITLE0=九月颱無人知
TTITLE1=酷刑
TTITLE2=振作
TTITLE3=絕情風雨
TTITLE4=今夜又擱為你醉
TTITLE5=愛情戲
TTITLE6=苦情花
TTITLE7=罩霧的晚暝
TTITLE8=強強滾
TTITLE9=甘願
EXTD=
EXTT0=
EXTT1=
EXTT2=
EXTT3=
EXTT4=
EXTT5=
EXTT6=
EXTT7=
EXTT8=
EXTT9=
PLAYORDER=
